<?xml version="1.0" encoding="utf-8"?>
<!-- Generator: Adobe Illustrator 15.0.0, SVG Export Plug-In  -->
<!DOCTYPE svg PUBLIC "-//W3C//DTD SVG 1.1//EN" "http://www.w3.org/Graphics/SVG/1.1/DTD/svg11.dtd" [
	<!ENTITY ns_flows "http://ns.adobe.com/Flows/1.0/">
]>
<svg version="1.1"
	 xmlns="http://www.w3.org/2000/svg" xmlns:xlink="http://www.w3.org/1999/xlink" xmlns:a="http://ns.adobe.com/AdobeSVGViewerExtensions/3.0/"
	 x="0px" y="0px" width="142px" height="142px" viewBox="-29.117 -38.261 142 142"
	 overflow="visible" enable-background="new -29.117 -38.261 142 142" xml:space="preserve">
<defs>
</defs>
<path fill="#FFFFFF" d="M78.678,0H11.24C5.033,0,0,5.032,0,11.238v44.96c0,6.208,5.033,11.238,11.24,11.238h67.438
	c6.206,0,11.239-5.03,11.239-11.238v-44.96C89.917,5.032,84.884,0,78.678,0 M60.178,29.991L83.969,9.604
	c0.165,0.526,0.329,1.053,0.329,1.634v44.96c0,0.39-0.148,0.735-0.227,1.103L60.178,29.991z M78.678,5.62
	c0.372,0,0.701,0.142,1.053,0.212L44.959,35.639L10.187,5.832c0.352-0.07,0.681-0.212,1.054-0.212H78.678z M5.841,57.295
	c-0.075-0.368-0.222-0.707-0.222-1.097v-44.96c0-0.581,0.169-1.107,0.333-1.634l23.783,20.382L5.841,57.295z M11.24,61.816
	c-0.567,0-1.085-0.164-1.604-0.324l24.367-27.847l9.128,7.821c0.523,0.457,1.178,0.682,1.827,0.682c0.65,0,1.302-0.225,1.827-0.682
	l9.127-7.821L80.28,61.492c-0.517,0.16-1.033,0.324-1.603,0.324H11.24z"/>
</svg>
