<?xml version="1.0" encoding="utf-8"?>
<!-- Generator: Adobe Illustrator 15.0.0, SVG Export Plug-In  -->
<!DOCTYPE svg PUBLIC "-//W3C//DTD SVG 1.1//EN" "http://www.w3.org/Graphics/SVG/1.1/DTD/svg11.dtd" [
	<!ENTITY ns_flows "http://ns.adobe.com/Flows/1.0/">
]>
<svg version="1.1"
	 xmlns="http://www.w3.org/2000/svg" xmlns:xlink="http://www.w3.org/1999/xlink" xmlns:a="http://ns.adobe.com/AdobeSVGViewerExtensions/3.0/"
	 x="0px" y="0px" width="142px" height="142px" viewBox="-36.2 -41.5 142 142"
	 overflow="visible" enable-background="new -36.2 -41.5 142 142" xml:space="preserve">
<defs>
</defs>
<path fill="#FFFFFF" d="M55.6,0H13.9C6.2,0,0,6.2,0,13.9v33.5C0,55,6.2,61.2,13.9,61.2h41.7c7.6,0,13.9-6.2,13.9-13.9V13.9
	C69.4,6.2,63.2,0,55.6,0z M20.9,41.3c-5.9,0-10.7-4.8-10.7-10.7c0-5.9,4.8-10.7,10.7-10.7c5.9,0,10.7,4.8,10.7,10.7
	C31.6,36.5,26.8,41.3,20.9,41.3z M48.5,41.3c-5.9,0-10.7-4.8-10.7-10.7c0-5.9,4.8-10.7,10.7-10.7c5.9,0,10.7,4.8,10.7,10.7
	C59.2,36.5,54.4,41.3,48.5,41.3z"/>
</svg>
