<?xml version="1.0" encoding="utf-8"?>
<!-- Generator: Adobe Illustrator 15.0.0, SVG Export Plug-In  -->
<!DOCTYPE svg PUBLIC "-//W3C//DTD SVG 1.1//EN" "http://www.w3.org/Graphics/SVG/1.1/DTD/svg11.dtd" [
	<!ENTITY ns_flows "http://ns.adobe.com/Flows/1.0/">
]>
<svg version="1.1"
	 xmlns="http://www.w3.org/2000/svg" xmlns:xlink="http://www.w3.org/1999/xlink" xmlns:a="http://ns.adobe.com/AdobeSVGViewerExtensions/3.0/"
	 x="0px" y="0px" width="142px" height="142px" viewBox="-30.9 -38.6 142 142"
	 overflow="visible" enable-background="new -30.9 -38.6 142 142" xml:space="preserve">
<defs>
</defs>
<path fill="#FFFFFF" d="M75,0H1.7C0.8,0,0.1,0.7,0.1,1.7v56.3L0,60.1h63.4c0.4-1,0.8-1.9,1.2-2.8H3.4v-54h69.9V31
	c1.1-0.4,2.2-0.6,3.3-0.7V1.7C76.7,0.7,75.9,0,75,0z"/>
<path fill="#FFFFFF" d="M38.3,51c-0.1,0-0.3-0.1-0.4-0.1c-1.2,0-2.1,0.8-2.4,1.9c0,0.2-0.1,0.4-0.1,0.6c0,1.4,1.1,2.5,2.5,2.5
	c0.2,0,0.4-0.1,0.5-0.1c1.1-0.3,1.9-1.2,1.9-2.4c0-0.1-0.1-0.3-0.1-0.4C40.1,51.9,39.4,51.2,38.3,51z"/>
<path fill="#FFFFFF" d="M69.2,49.5c0.2,0.3,0.4,0.5,0.6,0.7c0.3,0.4,0.7,0.8,1,1.1c0.7,0.7,1.6,1.2,2.5,1.7c1,0.5,2.2,0.8,3.3,0.9
	c0.4,0,0.8,0.1,1.2,0.1l0,0c1.6,0,3-0.4,4.4-1c0.9-0.4,1.8-1,2.6-1.7c0.1-0.1,0.3-0.2,0.4-0.3c2-2,3.1-4.6,3.1-7.4
	c0-5.8-4.7-10.5-10.5-10.5c-0.4,0-0.8,0.1-1.2,0.1c-1.2,0.1-2.3,0.4-3.3,0.9c-1,0.5-1.9,1.1-2.7,1.9c-0.1,0.1-0.1,0.1-0.2,0.2
	c-1.2,1.2-2.1,2.7-2.6,4.3c-0.3,1-0.5,2-0.5,3.1c0,1,0.2,1.9,0.4,2.8C68.1,47.4,68.6,48.5,69.2,49.5z"/>
<path fill="#FFFFFF" d="M85.8,54.4c-0.1-0.1-0.2-0.1-0.2-0.1c-0.5-0.3-1.1-0.3-1.6,0c0,0-0.7,0.5-1.8,1c-1.4,0.6-3.4,1.3-5.6,1
	c-1.1-0.1-2.2-0.5-3.3-1.2c-0.4-0.2-0.8-0.5-1.3-0.8c-0.5-0.4-1.3-0.4-1.8,0c0,0,0,0,0,0c0,0-0.2,0.2-0.4,0.4
	c-0.4,0.5-1.2,1.3-1.9,2.5c-0.5,0.8-1,1.7-1.5,2.8c-1,2.2-1.8,5.1-1.8,8.6c0,0.4,0.1,0.7,0.4,1c0.3,0.3,0.6,0.4,1,0.4l23.9,0
	c0.8,0,1.4-0.6,1.4-1.3C91.2,68.4,91.4,59.5,85.8,54.4z"/>
<path fill="#FFFFFF" d="M68.8,5H7.9c-1,0-1.8,0.8-1.8,1.8v41c0,1,0.8,1.8,1.8,1.8h28.7h4.8h24.7c-0.3-0.6-0.6-1.2-0.8-1.9
	c0,0-1.5-7.3,1.7-11.9c0.3-0.4,0.6-0.7,0.9-1.1c0.2-0.2,0.4-0.5,0.6-0.7c0.7-0.7,1.4-1.2,2.2-1.8V6.8C70.6,5.8,69.8,5,68.8,5z
	 M49.5,15c1.4-1.4,3.3-2.2,5.3-2.2c4.2,0,7.6,3.4,7.6,7.6c0,2-0.8,3.9-2.2,5.3c-1.4,1.4-3.3,2.2-5.3,2.2h0c-4.2,0-7.6-3.4-7.6-7.6
	C47.3,18.4,48.1,16.5,49.5,15z M15.7,15c1.4-1.4,3.3-2.2,5.3-2.2c4.2,0,7.6,3.4,7.6,7.6c0,2-0.8,3.9-2.2,5.3
	c-1.4,1.4-3.3,2.2-5.3,2.2c-4.2,0-7.6-3.4-7.6-7.6C13.5,18.4,14.2,16.5,15.7,15z M30.6,38.5c0,0.5-0.5,1-1,1l-17.1,0
	c-0.1,0-0.2-0.1-0.2-0.1c-0.2,0-0.3-0.1-0.5-0.2c-0.2-0.2-0.3-0.4-0.3-0.7c0-1.8,0.3-3.3,0.8-4.7c1.2-3.6,3.3-5.5,3.4-5.6
	c0.4-0.3,0.9-0.3,1.3,0c4.1,3.4,8.6,0,8.6,0c0.4-0.3,0.9-0.3,1.3,0.1C30.7,31.9,30.6,38.3,30.6,38.5z M44.4,32.8L38.8,37v4.2
	c0,0.3-0.3,0.6-0.6,0.6c-0.3,0-0.6-0.3-0.6-0.6V37l-5.6-4.2c-0.2-0.2-0.2-0.6,0-0.9c0.2-0.2,0.6-0.2,0.9,0l5.4,4l5.4-4
	c0.2-0.2,0.6-0.2,0.9,0C44.6,32.1,44.6,32.5,44.4,32.8z M64.4,38.5c0,0.5-0.5,1-1,1l-17.1,0c-0.3,0-0.5-0.1-0.7-0.3
	c-0.2-0.2-0.3-0.4-0.3-0.7c0.1-6.7,4-10.2,4.1-10.3c0.4-0.3,0.9-0.3,1.3,0c4.1,3.4,8.6,0,8.6,0c0.4-0.3,0.9-0.3,1.3,0.1
	C64.6,31.9,64.4,38.3,64.4,38.5z"/>
</svg>
