<?xml version="1.0" encoding="utf-8"?>
<!-- Generator: Adobe Illustrator 15.0.0, SVG Export Plug-In  -->
<!DOCTYPE svg PUBLIC "-//W3C//DTD SVG 1.1//EN" "http://www.w3.org/Graphics/SVG/1.1/DTD/svg11.dtd" [
	<!ENTITY ns_flows "http://ns.adobe.com/Flows/1.0/">
]>
<svg version="1.1"
	 xmlns="http://www.w3.org/2000/svg" xmlns:xlink="http://www.w3.org/1999/xlink" xmlns:a="http://ns.adobe.com/AdobeSVGViewerExtensions/3.0/"
	 x="0px" y="0px" width="142px" height="142px" viewBox="-27.548 -45.822 142 142"
	 overflow="visible" enable-background="new -27.548 -45.822 142 142" xml:space="preserve">
<defs>
</defs>
<path fill="#FFFFFF" d="M75.461,7.264c-2.773,1.237-5.76,2.063-8.89,2.437c3.194-1.915,5.65-4.948,6.797-8.564
	c-2.98,1.774-6.293,3.062-9.817,3.757C60.723,1.886,56.703,0,52.243,0c-8.552,0-15.485,6.938-15.485,15.485
	c0,1.215,0.14,2.396,0.403,3.53C24.297,18.369,12.889,12.207,5.252,2.839c-1.334,2.286-2.101,4.946-2.101,7.78
	c0,5.369,2.736,10.107,6.891,12.892c-2.538-0.081-4.926-0.778-7.015-1.939c-0.003,0.062-0.003,0.13-0.003,0.194
	c0,7.505,5.34,13.761,12.421,15.183c-1.295,0.357-2.664,0.545-4.078,0.545c-1,0-1.965-0.103-2.918-0.273
	c1.973,6.153,7.691,10.623,14.467,10.742c-5.298,4.149-11.973,6.632-19.229,6.632c-1.249,0-2.485-0.075-3.688-0.213
	c6.844,4.389,14.984,6.956,23.726,6.956c28.484,0,44.052-23.591,44.052-44.057c0-0.669-0.017-1.341-0.041-2.003
	C70.764,13.097,73.384,10.373,75.461,7.264L75.461,7.264z M75.461,7.264"/>
</svg>
