<?xml version="1.0" encoding="utf-8"?>
<!-- Generator: Adobe Illustrator 15.0.0, SVG Export Plug-In  -->
<!DOCTYPE svg PUBLIC "-//W3C//DTD SVG 1.1//EN" "http://www.w3.org/Graphics/SVG/1.1/DTD/svg11.dtd" [
	<!ENTITY ns_flows "http://ns.adobe.com/Flows/1.0/">
]>
<svg version="1.1"
	 xmlns="http://www.w3.org/2000/svg" xmlns:xlink="http://www.w3.org/1999/xlink" xmlns:a="http://ns.adobe.com/AdobeSVGViewerExtensions/3.0/"
	 x="0px" y="0px" width="142px" height="142px" viewBox="-44.667 -38.435 142 142"
	 overflow="visible" enable-background="new -44.667 -38.435 142 142" xml:space="preserve">
<defs>
</defs>
<path id="XMLID_1_" fill="#FFFFFF" d="M40.996,22.8c6.285,0,11.402-5.116,11.402-11.401C52.398,5.112,47.281,0,40.996,0
	C34.71,0,29.598,5.112,29.598,11.398c0,1.449,0.281,2.829,0.776,4.102l-12.497,8.613c-1.85-1.281-4.076-2.033-6.478-2.033
	C5.111,22.08,0,27.196,0,33.481c0,6.277,5.111,11.393,11.399,11.393c2.644,0,5.07-0.905,7.01-2.422l11.612,7.989
	c-0.27,0.954-0.424,1.981-0.424,3.021c0,6.293,5.112,11.4,11.398,11.4c6.285,0,11.402-5.107,11.402-11.4
	c0-6.274-5.117-11.392-11.402-11.392c-2.753,0-5.276,0.982-7.247,2.617l-11.447-7.882c0.318-1.05,0.495-2.173,0.495-3.325
	c0-1.393-0.263-2.715-0.722-3.943l12.586-8.669C36.473,22.084,38.653,22.8,40.996,22.8z"/>
</svg>
