<?xml version="1.0" encoding="utf-8"?>
<!-- Generator: Adobe Illustrator 15.0.0, SVG Export Plug-In  -->
<!DOCTYPE svg PUBLIC "-//W3C//DTD SVG 1.1//EN" "http://www.w3.org/Graphics/SVG/1.1/DTD/svg11.dtd" [
	<!ENTITY ns_flows "http://ns.adobe.com/Flows/1.0/">
]>
<svg version="1.1"
	 xmlns="http://www.w3.org/2000/svg" xmlns:xlink="http://www.w3.org/1999/xlink" xmlns:a="http://ns.adobe.com/AdobeSVGViewerExtensions/3.0/"
	 x="0px" y="0px" width="142px" height="142px" viewBox="-34.831 -35.073 142 142"
	 overflow="visible" enable-background="new -34.831 -35.073 142 142" xml:space="preserve">
<defs>
</defs>
<path fill="#FFFFFF" d="M55.693,28.21L43.37,15.89c-0.762-0.771-1.794-1.195-2.878-1.195c-1.089,0-2.107,0.424-2.879,1.195
	L1.193,52.309c-1.592,1.592-1.592,4.176,0,5.768l12.312,12.308c0.771,0.779,1.789,1.203,2.883,1.203c1.095,0,2.11-0.424,2.885-1.203
	l36.42-36.411c0.767-0.771,1.191-1.795,1.191-2.884C56.885,30.005,56.46,28.98,55.693,28.21z M38.337,19.255
	c0.46-0.465,1.075-0.721,1.736-0.721c0.657,0,1.271,0.256,1.732,0.721c0.467,0.462,0.719,1.08,0.719,1.733
	c0,0.656-0.252,1.274-0.719,1.735c-0.462,0.467-1.075,0.721-1.732,0.721c-0.661,0-1.276-0.254-1.736-0.721
	c-0.467-0.461-0.719-1.079-0.719-1.735C37.618,20.335,37.87,19.717,38.337,19.255z M42.015,33.113l-0.357,0.36
	c-0.266,0.271-0.634,0.414-1.011,0.414c-0.387,0-0.741-0.144-1.013-0.414l-1.522-1.524c-0.557-0.556-0.557-1.466,0-2.024
	l0.352-0.356c0.272-0.271,0.633-0.42,1.02-0.42c0.384,0,0.739,0.149,1.01,0.42l1.522,1.519
	C42.572,31.644,42.572,32.56,42.015,33.113z M38.819,34.283c0.271,0.274,0.417,0.63,0.417,1.016c0,0.376-0.146,0.741-0.417,1.013
	l-0.359,0.355c-0.271,0.271-0.63,0.421-1.011,0.421c-0.379,0-0.746-0.149-1.013-0.421l-1.52-1.516c-0.558-0.56-0.558-1.476,0-2.029
	l0.354-0.356c0.274-0.27,0.636-0.419,1.018-0.419s0.74,0.149,1.008,0.419L38.819,34.283z M32.854,24.665l0.357-0.353
	c0.27-0.271,0.627-0.423,1.009-0.423c0.387,0,0.747,0.151,1.012,0.423l1.522,1.518c0.271,0.27,0.419,0.63,0.419,1.011
	c0,0.387-0.148,0.742-0.419,1.012l-0.356,0.357c-0.271,0.27-0.626,0.418-1.011,0.418c-0.388,0-0.746-0.148-1.018-0.418l-1.516-1.521
	c-0.271-0.268-0.422-0.63-0.422-1.008C32.432,25.299,32.583,24.937,32.854,24.665z M29.653,27.862l0.363-0.356
	c0.269-0.267,0.626-0.419,1.01-0.419c0.382,0,0.747,0.152,1.017,0.419l1.514,1.516c0.558,0.561,0.558,1.47,0,2.034l-0.357,0.352
	c-0.271,0.266-0.63,0.42-1.014,0.42c-0.38,0-0.739-0.154-1.01-0.42l-1.522-1.521c-0.27-0.266-0.418-0.625-0.418-1.012
	C29.235,28.493,29.384,28.13,29.653,27.862z M26.462,31.06l0.355-0.36c0.271-0.267,0.632-0.42,1.011-0.42
	c0.381,0,0.746,0.153,1.018,0.42l1.512,1.521c0.561,0.56,0.561,1.471,0,2.025l-0.352,0.355c-0.271,0.271-0.631,0.418-1.012,0.418
	c-0.385,0-0.744-0.147-1.018-0.418l-1.515-1.516C25.902,32.524,25.902,31.614,26.462,31.06z M23.264,34.253l0.359-0.355
	c0.267-0.271,0.633-0.424,1.009-0.424c0.381,0,0.744,0.152,1.018,0.424l1.515,1.517c0.56,0.558,0.56,1.47,0,2.028l-0.35,0.356
	c-0.276,0.268-0.638,0.419-1.021,0.419c-0.383,0-0.742-0.151-1.013-0.419l-1.517-1.517C22.709,35.723,22.709,34.812,23.264,34.253z
	 M18.009,42.687c0.163-0.026,0.323,0.015,0.453,0.123c0.121,0.104,0.191,0.258,0.191,0.422v2.284c0,0.252-0.177,0.48-0.427,0.534
	c-2.429,0.548-4.26,2.499-4.671,4.954c-0.042,0.261-0.276,0.456-0.55,0.456h-2.258c-0.156,0-0.314-0.067-0.411-0.185
	c-0.108-0.12-0.156-0.271-0.14-0.431C10.712,46.719,13.917,43.363,18.009,42.687z M18.653,60.777c0,0.17-0.07,0.322-0.191,0.425
	c-0.101,0.085-0.229,0.136-0.362,0.136c-0.025,0-0.059,0-0.091-0.009c-4.092-0.686-7.297-4.04-7.812-8.158
	c-0.017-0.149,0.031-0.32,0.14-0.438c0.097-0.118,0.255-0.188,0.411-0.188h2.258c0.273,0,0.508,0.201,0.55,0.476
	c0.407,2.446,2.242,4.386,4.671,4.938c0.25,0.057,0.427,0.279,0.427,0.542V60.777z M16.618,54.961
	c-0.78-0.789-1.22-1.841-1.22-2.958c0-1.109,0.439-2.16,1.22-2.947c0.796-0.787,1.844-1.221,2.959-1.221
	c1.116,0,2.161,0.434,2.95,1.221c0.792,0.787,1.223,1.838,1.223,2.947c0,1.117-0.431,2.169-1.223,2.958
	c-0.789,0.786-1.834,1.218-2.95,1.218C18.462,56.179,17.414,55.747,16.618,54.961z M20.346,61.424c-0.017,0-0.035,0-0.047,0
	c-0.143,0-0.271-0.053-0.381-0.146c-0.109-0.101-0.173-0.255-0.173-0.406v-2.244c0-0.277,0.216-0.524,0.494-0.552
	c2.705-0.296,4.909-2.373,5.355-5.055c0.05-0.274,0.273-0.476,0.545-0.476h2.267c0.16,0,0.309,0.069,0.414,0.188
	c0.105,0.117,0.152,0.288,0.136,0.438C28.406,57.592,24.787,61.068,20.346,61.424z M28.82,51.275
	c-0.105,0.117-0.254,0.185-0.414,0.185H26.14c-0.271,0-0.495-0.195-0.545-0.456c-0.446-2.693-2.653-4.777-5.355-5.065
	c-0.278-0.034-0.494-0.271-0.494-0.559v-2.242c0-0.156,0.063-0.295,0.173-0.405c0.115-0.106,0.267-0.161,0.428-0.144
	c4.441,0.355,8.061,3.824,8.61,8.256C28.973,51.004,28.926,51.155,28.82,51.275z M32.426,42.701l-0.355,0.356
	c-0.271,0.271-0.633,0.423-1.013,0.423c-0.381,0-0.747-0.151-1.019-0.423l-1.515-1.514c-0.271-0.273-0.414-0.634-0.414-1.018
	c0-0.382,0.143-0.743,0.414-1.013l0.354-0.355c0.273-0.271,0.634-0.42,1.015-0.42c0.384,0,0.743,0.148,1.017,0.42l1.517,1.515
	c0.27,0.272,0.417,0.635,0.417,1.017C32.843,42.07,32.695,42.432,32.426,42.701z M31.727,38.346
	c-0.276-0.273-0.428-0.633-0.428-1.015c0-0.385,0.151-0.745,0.428-1.012l0.351-0.354c0.271-0.268,0.629-0.425,1.012-0.425
	c0.385,0,0.747,0.157,1.014,0.425l1.515,1.513c0.271,0.269,0.425,0.635,0.425,1.02c0,0.382-0.153,0.737-0.425,1.007l-0.35,0.359
	c-0.272,0.273-0.633,0.423-1.019,0.423c-0.376,0-0.739-0.149-1.011-0.423L31.727,38.346z M37.682,47.955l-0.353,0.362
	c-0.271,0.271-0.626,0.417-1.012,0.417c-0.387,0-0.745-0.146-1.014-0.417l-1.518-1.516c-0.562-0.56-0.562-1.472,0-2.031l0.356-0.355
	c0.269-0.273,0.627-0.417,1.015-0.417c0.376,0,0.74,0.144,1.014,0.417l1.511,1.523C38.244,46.498,38.244,47.402,37.682,47.955z
	 M40.882,44.771l-0.355,0.355c-0.27,0.269-0.632,0.415-1.016,0.415c-0.381,0-0.74-0.146-1.008-0.415l-1.525-1.522
	c-0.271-0.269-0.418-0.63-0.418-1.013c0-0.381,0.146-0.744,0.418-1.014l0.36-0.358c0.271-0.267,0.631-0.419,1.008-0.419
	c0.384,0,0.75,0.152,1.017,0.424l1.52,1.517C41.438,43.295,41.438,44.211,40.882,44.771z M44.076,41.566l-0.355,0.355
	c-0.272,0.277-0.633,0.422-1.014,0.422c-0.385,0-0.74-0.145-1.011-0.422l-1.521-1.516c-0.56-0.557-0.56-1.465,0-2.024l0.356-0.356
	c0.271-0.271,0.63-0.418,1.01-0.418c0.387,0,0.747,0.146,1.019,0.418l1.516,1.518C44.639,40.103,44.639,41.013,44.076,41.566z
	 M47.274,38.374l-0.356,0.351c-0.275,0.277-0.635,0.424-1.012,0.424c-0.387,0-0.746-0.146-1.012-0.424l-1.524-1.512
	c-0.272-0.269-0.418-0.63-0.418-1.012c0-0.386,0.146-0.749,0.418-1.017l0.358-0.356c0.271-0.271,0.627-0.424,1.013-0.424
	c0.383,0,0.745,0.153,1.017,0.424l1.517,1.522c0.267,0.268,0.417,0.63,0.417,1.006C47.691,37.746,47.541,38.107,47.274,38.374z
	 M52.328,33.245c-0.467,0.465-1.08,0.721-1.737,0.721c-0.652,0-1.271-0.256-1.732-0.721c-0.462-0.466-0.722-1.076-0.722-1.732
	s0.26-1.271,0.722-1.741c0.462-0.466,1.08-0.716,1.732-0.716c0.657,0,1.271,0.25,1.737,0.716c0.461,0.47,0.717,1.085,0.717,1.741
	S52.789,32.779,52.328,33.245z"/>
<path fill="#FFFFFF" d="M20.848,59.109v1.145c3.439-0.535,6.216-3.186,6.902-6.591h-1.153C25.939,56.45,23.671,58.61,20.848,59.109z
	"/>
<path fill="#FFFFFF" d="M12.554,53.663H11.4c0.627,3.126,3.052,5.659,6.149,6.438v-1.17C15.046,58.203,13.145,56.204,12.554,53.663z
	"/>
<path fill="#FFFFFF" d="M21.745,49.836c-0.579-0.576-1.349-0.897-2.168-0.897c-0.82,0-1.591,0.321-2.165,0.897
	c-0.581,0.574-0.9,1.354-0.9,2.167c0,0.831,0.319,1.592,0.9,2.169c0.574,0.577,1.345,0.898,2.165,0.898
	c0.819,0,1.589-0.321,2.168-0.898c0.582-0.577,0.899-1.338,0.899-2.169C22.645,51.19,22.327,50.41,21.745,49.836z"/>
<path fill="#FFFFFF" d="M20.848,43.766v1.14c2.823,0.507,5.092,2.661,5.749,5.454h1.153C27.063,46.945,24.287,44.294,20.848,43.766z
	"/>
<path fill="#FFFFFF" d="M17.55,45.084v-1.17c-3.098,0.77-5.522,3.312-6.149,6.445h1.153C13.145,47.819,15.046,45.812,17.55,45.084z"
	/>
<path fill="#FFFFFF" d="M35.382,45.21c-0.066-0.069-0.141-0.104-0.225-0.104c-0.091,0-0.17,0.034-0.234,0.104l-0.355,0.348
	c-0.123,0.128-0.123,0.329,0,0.464l1.521,1.511c0.119,0.124,0.332,0.124,0.459,0l0.354-0.357c0.123-0.12,0.123-0.331,0-0.456
	L35.382,45.21z"/>
<path fill="#FFFFFF" d="M38.583,42.009c-0.067-0.065-0.147-0.1-0.237-0.1c-0.081,0-0.16,0.034-0.225,0.1l-0.354,0.355
	c-0.06,0.062-0.099,0.144-0.099,0.227c0,0.087,0.039,0.166,0.099,0.23l1.52,1.518c0.123,0.124,0.33,0.124,0.457,0l0.352-0.357
	c0.127-0.127,0.127-0.33,0-0.456L38.583,42.009z"/>
<path fill="#FFFFFF" d="M30.126,39.94c-0.059-0.055-0.146-0.091-0.233-0.091c-0.081,0-0.17,0.036-0.226,0.091l-0.355,0.355
	c-0.062,0.065-0.098,0.144-0.098,0.23c0,0.089,0.035,0.17,0.094,0.227l1.516,1.522c0.123,0.123,0.339,0.123,0.462,0l0.352-0.355
	c0.062-0.066,0.102-0.144,0.102-0.23c0-0.089-0.039-0.164-0.102-0.227L30.126,39.94z"/>
<path fill="#FFFFFF" d="M41.775,38.811c-0.062-0.062-0.144-0.094-0.233-0.094c-0.084,0-0.167,0.031-0.222,0.094l-0.36,0.356
	c-0.128,0.125-0.128,0.334,0,0.46l1.52,1.514c0.117,0.122,0.334,0.122,0.456,0l0.356-0.354c0.123-0.126,0.123-0.334,0-0.456
	L41.775,38.811z"/>
<path fill="#FFFFFF" d="M34.482,39.08l0.356-0.358c0.062-0.061,0.093-0.145,0.093-0.225c0-0.089-0.031-0.17-0.093-0.23l-1.524-1.519
	c-0.055-0.063-0.139-0.098-0.222-0.098c-0.093,0-0.169,0.034-0.232,0.098l-0.358,0.354c-0.056,0.061-0.095,0.145-0.095,0.229
	c0,0.086,0.039,0.167,0.095,0.225l1.518,1.524C34.143,39.2,34.359,39.2,34.482,39.08z"/>
<path fill="#FFFFFF" d="M44.969,35.612c-0.059-0.061-0.139-0.094-0.228-0.094c-0.084,0-0.165,0.033-0.228,0.094l-0.357,0.359
	c-0.061,0.059-0.093,0.141-0.093,0.229c0,0.084,0.032,0.165,0.093,0.229l1.521,1.515c0.123,0.121,0.332,0.121,0.455,0l0.355-0.358
	c0.062-0.061,0.096-0.135,0.096-0.23c0-0.081-0.033-0.16-0.096-0.225L44.969,35.612z"/>
<path fill="#FFFFFF" d="M25.566,37.015c0.123,0.117,0.336,0.117,0.456,0l0.36-0.361c0.126-0.123,0.126-0.324,0-0.452l-1.519-1.525
	c-0.062-0.055-0.144-0.088-0.232-0.088c-0.084,0-0.166,0.033-0.229,0.088l-0.353,0.361c-0.13,0.126-0.13,0.334,0,0.46L25.566,37.015
	z"/>
<path fill="#FFFFFF" d="M36.06,33.55l-0.356,0.355c-0.126,0.132-0.126,0.331,0,0.457l1.518,1.521c0.123,0.118,0.334,0.118,0.461,0
	l0.351-0.36c0.064-0.055,0.093-0.14,0.093-0.225c0-0.093-0.028-0.164-0.093-0.232l-1.521-1.517c-0.059-0.056-0.14-0.093-0.224-0.093
	C36.197,33.457,36.118,33.494,36.06,33.55z"/>
<path fill="#FFFFFF" d="M28.768,33.816c0.117,0.123,0.333,0.123,0.456,0l0.355-0.355c0.123-0.127,0.123-0.33,0-0.458l-1.517-1.516
	c-0.069-0.063-0.145-0.094-0.234-0.094c-0.084,0-0.168,0.03-0.229,0.094l-0.354,0.356c-0.131,0.126-0.131,0.328,0,0.456
	L28.768,33.816z"/>
<path fill="#FFFFFF" d="M50.591,30.166c-0.358,0-0.693,0.14-0.948,0.394c-0.26,0.256-0.393,0.594-0.393,0.953
	c0,0.355,0.133,0.694,0.393,0.949c0.255,0.258,0.59,0.394,0.948,0.394s0.699-0.136,0.954-0.394c0.256-0.255,0.397-0.594,0.397-0.949
	c0-0.359-0.142-0.697-0.397-0.953C51.29,30.306,50.949,30.166,50.591,30.166z"/>
<path fill="#FFFFFF" d="M39.482,30.259c-0.09,0-0.168,0.035-0.229,0.094l-0.353,0.36c-0.127,0.122-0.127,0.325,0,0.458l1.514,1.518
	c0.123,0.12,0.338,0.12,0.46,0l0.355-0.358c0.128-0.123,0.128-0.331-0.003-0.458l-1.518-1.52
	C39.646,30.294,39.571,30.259,39.482,30.259z"/>
<path fill="#FFFFFF" d="M31.961,30.624c0.123,0.117,0.331,0.117,0.454,0l0.356-0.361c0.065-0.059,0.1-0.14,0.1-0.229
	c0-0.08-0.034-0.168-0.1-0.225l-1.516-1.52c-0.063-0.064-0.145-0.094-0.229-0.094c-0.084,0-0.165,0.029-0.227,0.094l-0.363,0.355
	c-0.054,0.064-0.093,0.144-0.093,0.229c0,0.088,0.039,0.168,0.093,0.229L31.961,30.624z"/>
<path fill="#FFFFFF" d="M35.157,27.426c0.118,0.123,0.329,0.123,0.451,0l0.361-0.352c0.06-0.068,0.095-0.147,0.095-0.233
	c0-0.085-0.035-0.17-0.095-0.229l-1.517-1.516c-0.067-0.068-0.146-0.094-0.233-0.094c-0.083,0-0.165,0.025-0.229,0.094l-0.355,0.351
	c-0.06,0.063-0.093,0.144-0.093,0.233c0,0.086,0.033,0.17,0.093,0.229L35.157,27.426z"/>
<path fill="#FFFFFF" d="M40.073,22.335c0.36,0,0.699-0.137,0.95-0.394c0.253-0.256,0.393-0.595,0.393-0.953
	c0-0.361-0.14-0.69-0.393-0.95c-0.251-0.258-0.59-0.396-0.95-0.396c-0.359,0-0.697,0.139-0.952,0.396
	c-0.254,0.26-0.392,0.589-0.392,0.95c0,0.358,0.138,0.697,0.392,0.953C39.376,22.198,39.714,22.335,40.073,22.335z"/>
<path id="XMLID_5_" fill="#FFFFFF" d="M65.994,6.079c-3.979-3.977-9.274-6.136-14.911-6.078c-0.413,0-0.798,0.166-1.088,0.458
	c-0.28,0.297-0.442,0.682-0.431,1.093c0,0.41,0.159,0.787,0.443,1.072c0.004,0.004,0.016,0.012,0.016,0.012
	C50.312,2.93,50.7,3.08,51.115,3.08c4.799-0.051,9.314,1.787,12.703,5.181c3.389,3.389,5.226,7.899,5.176,12.697
	c0,0.416,0.153,0.806,0.45,1.103c0.29,0.287,0.671,0.448,1.074,0.456c0.412,0,0.795-0.156,1.092-0.445
	c0.292-0.287,0.46-0.669,0.46-1.083C72.129,15.354,69.973,10.062,65.994,6.079z"/>
<path id="XMLID_3_" fill="#FFFFFF" d="M62.797,23.165c0.288,0.283,0.666,0.447,1.072,0.454c0.846,0.007,1.539-0.67,1.557-1.521
	c0.056-4.151-1.521-8.057-4.457-10.996c-2.938-2.932-6.838-4.515-10.999-4.455c-0.848,0.008-1.526,0.711-1.517,1.562
	c0.017,0.848,0.714,1.526,1.564,1.517c3.316-0.047,6.432,1.217,8.776,3.554c2.341,2.343,3.6,5.46,3.556,8.774
	C62.34,22.474,62.506,22.868,62.797,23.165z"/>
<path id="XMLID_1_" fill="#FFFFFF" d="M55.979,24.905c0.278,0.28,0.651,0.441,1.05,0.449c0.41,0.014,0.803-0.144,1.1-0.424
	c0.297-0.287,0.465-0.673,0.472-1.079c0.067-2.8-0.989-5.435-2.967-7.413c-1.976-1.977-4.612-3.032-7.416-2.969
	c-0.406,0.008-0.792,0.183-1.075,0.479c-0.285,0.292-0.431,0.681-0.423,1.097c0.009,0.396,0.163,0.77,0.448,1.05
	c0.008,0.009,0.017,0.017,0.025,0.026c0.302,0.287,0.69,0.436,1.1,0.423c1.948-0.043,3.787,0.691,5.167,2.071
	c1.374,1.377,2.11,3.213,2.063,5.163C55.517,24.203,55.676,24.61,55.979,24.905z"/>
</svg>
