<?xml version="1.0" encoding="utf-8"?>
<!-- Generator: Adobe Illustrator 15.0.0, SVG Export Plug-In  -->
<!DOCTYPE svg PUBLIC "-//W3C//DTD SVG 1.1//EN" "http://www.w3.org/Graphics/SVG/1.1/DTD/svg11.dtd" [
	<!ENTITY ns_flows "http://ns.adobe.com/Flows/1.0/">
]>
<svg version="1.1"
	 xmlns="http://www.w3.org/2000/svg" xmlns:xlink="http://www.w3.org/1999/xlink" xmlns:a="http://ns.adobe.com/AdobeSVGViewerExtensions/3.0/"
	 x="0px" y="0px" width="142px" height="142px" viewBox="-40.394 -33.981 142 142"
	 overflow="visible" enable-background="new -40.394 -33.981 142 142" xml:space="preserve">
<defs>
</defs>
<polygon fill="#FFFFFF" points="58.791,69.098 59.756,69.098 59.756,57.663 58.791,52.344 "/>
<polygon fill="#FFFFFF" points="0,69.098 3.18,69.098 3.18,51.422 "/>
<polygon fill="#FFFFFF" points="5.716,37.339 5.716,69.098 7.216,69.098 7.216,29.015 "/>
<rect x="36.294" y="16.072" fill="#FFFFFF" width="1.497" height="53.025"/>
<rect x="9.752" y="16.072" fill="#FFFFFF" width="1.265" height="53.025"/>
<polygon fill="#FFFFFF" points="51.438,16.072 51.438,69.098 52.703,69.098 52.703,18.757 52.222,16.072 "/>
<polygon fill="#FFFFFF" points="60.632,69.098 61.825,69.098 60.632,62.492 "/>
<rect x="33.683" y="16.072" fill="#FFFFFF" width="0.808" height="53.025"/>
<rect x="41.823" y="16.072" fill="#FFFFFF" width="0.805" height="53.025"/>
<rect x="39.683" y="16.072" fill="#FFFFFF" width="0.807" height="53.025"/>
<rect x="21.996" y="16.072" fill="#FFFFFF" width="0.807" height="53.025"/>
<rect x="12.095" y="16.072" fill="#FFFFFF" width="1.215" height="53.025"/>
<rect x="45.534" y="16.072" fill="#FFFFFF" width="3.99" height="53.025"/>
<polygon fill="#FFFFFF" points="55.124,69.098 57.673,69.098 57.673,46.177 55.124,32.116 "/>
<rect x="18.229" y="16.072" fill="#FFFFFF" width="1.876" height="53.025"/>
<rect x="15.274" y="16.072" fill="#FFFFFF" width="1.874" height="53.025"/>
<rect x="24.244" y="16.072" fill="#FFFFFF" width="1.149" height="53.025"/>
<rect x="28.456" y="16.072" fill="#FFFFFF" width="3.256" height="53.025"/>
<path fill="#FFFFFF" d="M42.218,11.731c-0.465,0-0.904-0.288-1.082-0.737c-2.035-5.369-5.957-8.69-10.227-8.69
	c-4.274,0-8.191,3.321-10.226,8.69c-0.227,0.585-0.893,0.881-1.486,0.656c-0.591-0.224-0.895-0.89-0.671-1.481
	C20.922,3.896,25.66,0,30.909,0c5.252,0,9.991,3.896,12.384,10.169c0.225,0.592-0.075,1.258-0.669,1.481
	C42.492,11.706,42.355,11.731,42.218,11.731"/>
</svg>
